<?xml version="1.0" encoding="UTF-8" standalone="no"?>
<!DOCTYPE svg PUBLIC "-//W3C//DTD SVG 1.1//EN"
 "http://www.w3.org/Graphics/SVG/1.1/DTD/svg11.dtd">
<!-- Generated by graphviz version 2.43.0 (0)
 -->
<!-- Title: JsoNeat::skip_value Pages: 1 -->
<svg width="283pt" height="52pt"
 viewBox="0.00 0.00 283.00 51.50" xmlns="http://www.w3.org/2000/svg" xmlns:xlink="http://www.w3.org/1999/xlink">
<g id="graph0" class="graph" transform="scale(1 1) rotate(0) translate(4 47.5)">
<title>JsoNeat::skip_value</title>
<!-- Node1 -->
<g id="node1" class="node">
<title>Node1</title>
<g id="a_node1"><a xlink:title="skip value (of an array)">
<polygon fill="#bfbfbf" stroke="black" points="162,-6 162,-25 275,-25 275,-6 162,-6"/>
<text text-anchor="middle" x="218.5" y="-13" font-family="Helvetica,sans-Serif" font-size="10.00">JsoNeat::skip_value</text>
</a>
</g>
</g>
<!-- Node1&#45;&gt;Node1 -->
<g id="edge3" class="edge">
<title>Node1&#45;&gt;Node1</title>
<path fill="none" stroke="midnightblue" d="M247.25,-34.15C246.04,-39.44 236.46,-43.5 218.5,-43.5 191.13,-43.5 183.22,-34.07 194.76,-25.26"/>
<polygon fill="midnightblue" stroke="midnightblue" points="250.19,-32.25 242.24,-25.26 244.09,-35.69 250.19,-32.25"/>
</g>
<!-- Node2 -->
<g id="node2" class="node">
<title>Node2</title>
<g id="a_node2"><a xlink:href="classJsoNeat.html#aa8af5808bbb31b2112211c124b16c643" target="_top" xlink:title="skip a key/value pair (in an object)">
<polygon fill="none" stroke="black" points="0,-0.5 0,-30.5 126,-30.5 126,-0.5 0,-0.5"/>
<text text-anchor="start" x="8" y="-18.5" font-family="Helvetica,sans-Serif" font-size="10.00">JsoNeat::skip_key_and</text>
<text text-anchor="middle" x="63" y="-7.5" font-family="Helvetica,sans-Serif" font-size="10.00">_value</text>
</a>
</g>
</g>
<!-- Node1&#45;&gt;Node2 -->
<g id="edge1" class="edge">
<title>Node1&#45;&gt;Node2</title>
<path fill="none" stroke="midnightblue" d="M151.47,-8.81C143.03,-8.72 134.41,-8.73 126.04,-8.86"/>
<polygon fill="midnightblue" stroke="midnightblue" points="151.59,-12.31 161.65,-8.98 151.71,-5.31 151.59,-12.31"/>
</g>
<!-- Node2&#45;&gt;Node1 -->
<g id="edge2" class="edge">
<title>Node2&#45;&gt;Node1</title>
<path fill="none" stroke="midnightblue" d="M136.07,-22.24C144.66,-22.28 153.33,-22.21 161.65,-22.02"/>
<polygon fill="midnightblue" stroke="midnightblue" points="136.07,-18.74 126.04,-22.14 136,-25.74 136.07,-18.74"/>
</g>
</g>
</svg>
