<?xml version="1.0" encoding="UTF-8" standalone="no"?>
<!DOCTYPE svg PUBLIC "-//W3C//DTD SVG 1.1//EN"
 "http://www.w3.org/Graphics/SVG/1.1/DTD/svg11.dtd">
<!-- Generated by graphviz version 2.43.0 (0)
 -->
<!-- Title: JsoNeat::skip_key_and_value Pages: 1 -->
<svg width="283pt" height="52pt"
 viewBox="0.00 0.00 283.00 51.50" xmlns="http://www.w3.org/2000/svg" xmlns:xlink="http://www.w3.org/1999/xlink">
<g id="graph0" class="graph" transform="scale(1 1) rotate(0) translate(4 47.5)">
<title>JsoNeat::skip_key_and_value</title>
<!-- Node1 -->
<g id="node1" class="node">
<title>Node1</title>
<g id="a_node1"><a xlink:title="skip a key/value pair (in an object)">
<polygon fill="#bfbfbf" stroke="black" points="0,-0.5 0,-30.5 126,-30.5 126,-0.5 0,-0.5"/>
<text text-anchor="start" x="8" y="-18.5" font-family="Helvetica,sans-Serif" font-size="10.00">JsoNeat::skip_key_and</text>
<text text-anchor="middle" x="63" y="-7.5" font-family="Helvetica,sans-Serif" font-size="10.00">_value</text>
</a>
</g>
</g>
<!-- Node2 -->
<g id="node2" class="node">
<title>Node2</title>
<g id="a_node2"><a xlink:href="classJsoNeat.html#a4121c8b1bc74397ad90fffbc3b457145" target="_top" xlink:title="skip value (of an array)">
<polygon fill="none" stroke="black" points="162,-6 162,-25 275,-25 275,-6 162,-6"/>
<text text-anchor="middle" x="218.5" y="-13" font-family="Helvetica,sans-Serif" font-size="10.00">JsoNeat::skip_value</text>
</a>
</g>
</g>
<!-- Node1&#45;&gt;Node2 -->
<g id="edge1" class="edge">
<title>Node1&#45;&gt;Node2</title>
<path fill="none" stroke="midnightblue" d="M126.43,-8.86C134.7,-8.73 143.19,-8.72 151.51,-8.81"/>
<polygon fill="midnightblue" stroke="midnightblue" points="151.48,-12.31 161.54,-8.98 151.6,-5.31 151.48,-12.31"/>
</g>
<!-- Node2&#45;&gt;Node1 -->
<g id="edge2" class="edge">
<title>Node2&#45;&gt;Node1</title>
<path fill="none" stroke="midnightblue" d="M161.54,-22.02C153.43,-22.2 144.98,-22.28 136.6,-22.24"/>
<polygon fill="midnightblue" stroke="midnightblue" points="136.47,-18.74 126.43,-22.14 136.4,-25.74 136.47,-18.74"/>
</g>
<!-- Node2&#45;&gt;Node2 -->
<g id="edge3" class="edge">
<title>Node2&#45;&gt;Node2</title>
<path fill="none" stroke="midnightblue" d="M194.76,-25.26C183.22,-34.07 191.13,-43.5 218.5,-43.5 236.46,-43.5 246.04,-39.44 247.25,-34.15"/>
<polygon fill="midnightblue" stroke="midnightblue" points="250.19,-32.25 242.24,-25.26 244.09,-35.69 250.19,-32.25"/>
</g>
</g>
</svg>
