<?xml version="1.0" encoding="UTF-8" standalone="no"?>
<!DOCTYPE svg PUBLIC "-//W3C//DTD SVG 1.1//EN"
 "http://www.w3.org/Graphics/SVG/1.1/DTD/svg11.dtd">
<!-- Generated by graphviz version 2.43.0 (0)
 -->
<!-- Title: JsoNeat::skip_value Pages: 1 -->
<svg width="283pt" height="52pt"
 viewBox="0.00 0.00 283.00 51.50" xmlns="http://www.w3.org/2000/svg" xmlns:xlink="http://www.w3.org/1999/xlink">
<g id="graph0" class="graph" transform="scale(1 1) rotate(0) translate(4 47.5)">
<title>JsoNeat::skip_value</title>
<!-- Node1 -->
<g id="node1" class="node">
<title>Node1</title>
<g id="a_node1"><a xlink:title="skip value (of an array)">
<polygon fill="#bfbfbf" stroke="black" points="0,-6 0,-25 113,-25 113,-6 0,-6"/>
<text text-anchor="middle" x="56.5" y="-13" font-family="Helvetica,sans-Serif" font-size="10.00">JsoNeat::skip_value</text>
</a>
</g>
</g>
<!-- Node1&#45;&gt;Node1 -->
<g id="edge3" class="edge">
<title>Node1&#45;&gt;Node1</title>
<path fill="none" stroke="midnightblue" d="M32.76,-25.26C21.22,-34.07 29.13,-43.5 56.5,-43.5 74.46,-43.5 84.04,-39.44 85.25,-34.15"/>
<polygon fill="midnightblue" stroke="midnightblue" points="88.19,-32.25 80.24,-25.26 82.09,-35.69 88.19,-32.25"/>
</g>
<!-- Node2 -->
<g id="node2" class="node">
<title>Node2</title>
<g id="a_node2"><a xlink:href="classJsoNeat.html#aa8af5808bbb31b2112211c124b16c643" target="_top" xlink:title="skip a key/value pair (in an object)">
<polygon fill="none" stroke="black" points="149,-0.5 149,-30.5 275,-30.5 275,-0.5 149,-0.5"/>
<text text-anchor="start" x="157" y="-18.5" font-family="Helvetica,sans-Serif" font-size="10.00">JsoNeat::skip_key_and</text>
<text text-anchor="middle" x="212" y="-7.5" font-family="Helvetica,sans-Serif" font-size="10.00">_value</text>
</a>
</g>
</g>
<!-- Node1&#45;&gt;Node2 -->
<g id="edge1" class="edge">
<title>Node1&#45;&gt;Node2</title>
<path fill="none" stroke="midnightblue" d="M113.35,-8.98C121.67,-8.79 130.34,-8.72 138.93,-8.76"/>
<polygon fill="midnightblue" stroke="midnightblue" points="138.93,-12.26 148.96,-8.86 139,-5.26 138.93,-12.26"/>
</g>
<!-- Node2&#45;&gt;Node1 -->
<g id="edge2" class="edge">
<title>Node2&#45;&gt;Node1</title>
<path fill="none" stroke="midnightblue" d="M148.96,-22.14C140.59,-22.27 131.97,-22.28 123.53,-22.19"/>
<polygon fill="midnightblue" stroke="midnightblue" points="123.41,-18.69 113.35,-22.02 123.29,-25.69 123.41,-18.69"/>
</g>
</g>
</svg>
