<?xml version="1.0" encoding="UTF-8" standalone="no"?>
<!DOCTYPE svg PUBLIC "-//W3C//DTD SVG 1.1//EN"
 "http://www.w3.org/Graphics/SVG/1.1/DTD/svg11.dtd">
<!-- Generated by graphviz version 2.43.0 (0)
 -->
<!-- Title: components/jsmn/include/jsmn Pages: 1 -->
<svg width="94pt" height="167pt"
 viewBox="0.00 0.00 94.00 167.00" xmlns="http://www.w3.org/2000/svg" xmlns:xlink="http://www.w3.org/1999/xlink">
<g id="graph0" class="graph" transform="scale(1 1) rotate(0) translate(4 163)">
<title>components/jsmn/include/jsmn</title>
<g id="clust1" class="cluster">
<title>clusterdir_ba8af206d9097dfa52b18563fbac8882</title>
<g id="a_clust1"><a xlink:href="dir_ba8af206d9097dfa52b18563fbac8882.html" target="_top" xlink:title="include">
<polygon fill="#ddddee" stroke="black" points="8,-8 8,-151 78,-151 78,-8 8,-8"/>
<text text-anchor="middle" x="43" y="-139" font-family="Helvetica,sans-Serif" font-size="10.00">include</text>
</a>
</g>
</g>
<!-- dir_4a1496b7d39251a64fa2a06ba43784f9 -->
<g id="node1" class="node">
<title>dir_4a1496b7d39251a64fa2a06ba43784f9</title>
<g id="a_node1"><a xlink:href="dir_4a1496b7d39251a64fa2a06ba43784f9.html" target="_top" xlink:title="jsoneat">
<polygon fill="none" stroke="black" points="70,-124 16,-124 16,-88 70,-88 70,-124"/>
<text text-anchor="middle" x="43" y="-103.5" font-family="Helvetica,sans-Serif" font-size="10.00">jsoneat</text>
</a>
</g>
</g>
<!-- dir_759a46d5e8ff5898a087f1641f1ffbd2 -->
<g id="node2" class="node">
<title>dir_759a46d5e8ff5898a087f1641f1ffbd2</title>
<g id="a_node2"><a xlink:href="dir_759a46d5e8ff5898a087f1641f1ffbd2.html" target="_top" xlink:title="jsmn">
<polygon fill="#eeeeff" stroke="black" points="70,-52 16,-52 16,-16 70,-16 70,-52"/>
<text text-anchor="middle" x="43" y="-31.5" font-family="Helvetica,sans-Serif" font-size="10.00">jsmn</text>
</a>
</g>
</g>
<!-- dir_4a1496b7d39251a64fa2a06ba43784f9&#45;&gt;dir_759a46d5e8ff5898a087f1641f1ffbd2 -->
<g id="edge1" class="edge">
<title>dir_4a1496b7d39251a64fa2a06ba43784f9&#45;&gt;dir_759a46d5e8ff5898a087f1641f1ffbd2</title>
<path fill="none" stroke="black" d="M37.08,-87.7C36.29,-79.98 36.06,-70.71 36.4,-62.11"/>
<polygon fill="black" stroke="black" points="39.9,-62.32 37.1,-52.1 32.92,-61.84 39.9,-62.32"/>
<g id="a_edge1&#45;headlabel"><a xlink:href="dir_000004_000003.html" target="_top" xlink:title="1">
<text text-anchor="middle" x="42.48" y="-63.61" font-family="Helvetica,sans-Serif" font-size="10.00">1</text>
</a>
</g>
</g>
<!-- dir_759a46d5e8ff5898a087f1641f1ffbd2&#45;&gt;dir_4a1496b7d39251a64fa2a06ba43784f9 -->
<g id="edge2" class="edge">
<title>dir_759a46d5e8ff5898a087f1641f1ffbd2&#45;&gt;dir_4a1496b7d39251a64fa2a06ba43784f9</title>
<path fill="none" stroke="black" d="M48.9,-52.1C49.7,-59.79 49.94,-69.05 49.6,-77.67"/>
<polygon fill="black" stroke="black" points="46.11,-77.48 48.92,-87.7 53.09,-77.96 46.11,-77.48"/>
<g id="a_edge2&#45;headlabel"><a xlink:href="dir_000003_000004.html" target="_top" xlink:title="1">
<text text-anchor="middle" x="43.52" y="-71.2" font-family="Helvetica,sans-Serif" font-size="10.00">1</text>
</a>
</g>
</g>
</g>
</svg>
