<?xml version="1.0" encoding="UTF-8" standalone="no"?>
<!DOCTYPE svg PUBLIC "-//W3C//DTD SVG 1.1//EN"
 "http://www.w3.org/Graphics/SVG/1.1/DTD/svg11.dtd">
<!-- Generated by graphviz version 2.43.0 (0)
 -->
<!-- Title: components/jsmn/include Pages: 1 -->
<svg width="182pt" height="183pt"
 viewBox="0.00 0.00 182.00 183.00" xmlns="http://www.w3.org/2000/svg" xmlns:xlink="http://www.w3.org/1999/xlink">
<g id="graph0" class="graph" transform="scale(1 1) rotate(0) translate(4 179)">
<title>components/jsmn/include</title>
<g id="clust1" class="cluster">
<title>clusterdir_7c8ad0e6462b22ef7f8ce5299e200110</title>
<g id="a_clust1"><a xlink:href="dir_7c8ad0e6462b22ef7f8ce5299e200110.html" target="_top" xlink:title="jsmn">
<polygon fill="#ddddee" stroke="black" points="8,-8 8,-167 166,-167 166,-8 8,-8"/>
<text text-anchor="middle" x="87" y="-155" font-family="Helvetica,sans-Serif" font-size="10.00">jsmn</text>
</a>
</g>
</g>
<g id="clust2" class="cluster">
<title>clusterdir_ba8af206d9097dfa52b18563fbac8882</title>
<g id="a_clust2"><a xlink:href="dir_ba8af206d9097dfa52b18563fbac8882.html" target="_top">
<polygon fill="#eeeeff" stroke="black" points="16,-16 16,-140 158,-140 158,-16 16,-16"/>
</a>
</g>
</g>
<!-- dir_ba8af206d9097dfa52b18563fbac8882 -->
<g id="node1" class="node">
<title>dir_ba8af206d9097dfa52b18563fbac8882</title>
<text text-anchor="middle" x="123" y="-111.5" font-family="Helvetica,sans-Serif" font-size="10.00">include</text>
</g>
<!-- dir_759a46d5e8ff5898a087f1641f1ffbd2 -->
<g id="node2" class="node">
<title>dir_759a46d5e8ff5898a087f1641f1ffbd2</title>
<g id="a_node2"><a xlink:href="dir_759a46d5e8ff5898a087f1641f1ffbd2.html" target="_top" xlink:title="jsmn">
<polygon fill="white" stroke="black" points="78,-132 24,-132 24,-96 78,-96 78,-132"/>
<text text-anchor="middle" x="51" y="-111.5" font-family="Helvetica,sans-Serif" font-size="10.00">jsmn</text>
</a>
</g>
</g>
<!-- dir_4a1496b7d39251a64fa2a06ba43784f9 -->
<g id="node3" class="node">
<title>dir_4a1496b7d39251a64fa2a06ba43784f9</title>
<g id="a_node3"><a xlink:href="dir_4a1496b7d39251a64fa2a06ba43784f9.html" target="_top" xlink:title="jsoneat">
<polygon fill="white" stroke="black" points="78,-60 24,-60 24,-24 78,-24 78,-60"/>
<text text-anchor="middle" x="51" y="-39.5" font-family="Helvetica,sans-Serif" font-size="10.00">jsoneat</text>
</a>
</g>
</g>
<!-- dir_759a46d5e8ff5898a087f1641f1ffbd2&#45;&gt;dir_4a1496b7d39251a64fa2a06ba43784f9 -->
<g id="edge2" class="edge">
<title>dir_759a46d5e8ff5898a087f1641f1ffbd2&#45;&gt;dir_4a1496b7d39251a64fa2a06ba43784f9</title>
<path fill="none" stroke="black" d="M45.08,-95.7C44.29,-87.98 44.06,-78.71 44.4,-70.11"/>
<polygon fill="black" stroke="black" points="47.9,-70.32 45.1,-60.1 40.92,-69.84 47.9,-70.32"/>
<g id="a_edge2&#45;headlabel"><a xlink:href="dir_000003_000004.html" target="_top" xlink:title="1">
<text text-anchor="middle" x="50.48" y="-71.61" font-family="Helvetica,sans-Serif" font-size="10.00">1</text>
</a>
</g>
</g>
<!-- dir_4a1496b7d39251a64fa2a06ba43784f9&#45;&gt;dir_759a46d5e8ff5898a087f1641f1ffbd2 -->
<g id="edge1" class="edge">
<title>dir_4a1496b7d39251a64fa2a06ba43784f9&#45;&gt;dir_759a46d5e8ff5898a087f1641f1ffbd2</title>
<path fill="none" stroke="black" d="M56.9,-60.1C57.7,-67.79 57.94,-77.05 57.6,-85.67"/>
<polygon fill="black" stroke="black" points="54.11,-85.48 56.92,-95.7 61.09,-85.96 54.11,-85.48"/>
<g id="a_edge1&#45;headlabel"><a xlink:href="dir_000004_000003.html" target="_top" xlink:title="1">
<text text-anchor="middle" x="51.52" y="-79.2" font-family="Helvetica,sans-Serif" font-size="10.00">1</text>
</a>
</g>
</g>
</g>
</svg>
