<?xml version="1.0" encoding="UTF-8" standalone="no"?>
<!DOCTYPE svg PUBLIC "-//W3C//DTD SVG 1.1//EN"
 "http://www.w3.org/Graphics/SVG/1.1/DTD/svg11.dtd">
<!-- Generated by graphviz version 2.43.0 (0)
 -->
<!-- Title: components/jsmn/include/jsmn/jsmn.h Pages: 1 -->
<svg width="200pt" height="240pt"
 viewBox="0.00 0.00 200.00 240.00" xmlns="http://www.w3.org/2000/svg" xmlns:xlink="http://www.w3.org/1999/xlink">
<g id="graph0" class="graph" transform="scale(1 1) rotate(0) translate(4 236)">
<title>components/jsmn/include/jsmn/jsmn.h</title>
<!-- Node1 -->
<g id="node1" class="node">
<title>Node1</title>
<g id="a_node1"><a xlink:title=" ">
<polygon fill="#bfbfbf" stroke="black" points="0,-201.5 0,-231.5 142,-231.5 142,-201.5 0,-201.5"/>
<text text-anchor="start" x="8" y="-219.5" font-family="Helvetica,sans-Serif" font-size="10.00">components/jsmn/include</text>
<text text-anchor="middle" x="71" y="-208.5" font-family="Helvetica,sans-Serif" font-size="10.00">/jsmn/jsmn.h</text>
</a>
</g>
</g>
<!-- Node2 -->
<g id="node2" class="node">
<title>Node2</title>
<g id="a_node2"><a xlink:href="jsmn__iterate_8hh.html" target="_top" xlink:title="helper class to iterate the JSMN token array and extract data">
<polygon fill="none" stroke="black" points="0,-67.5 0,-97.5 142,-97.5 142,-67.5 0,-67.5"/>
<text text-anchor="start" x="8" y="-85.5" font-family="Helvetica,sans-Serif" font-size="10.00">components/jsmn/include</text>
<text text-anchor="middle" x="71" y="-74.5" font-family="Helvetica,sans-Serif" font-size="10.00">/jsmn/jsmn_iterate.hh</text>
</a>
</g>
</g>
<!-- Node1&#45;&gt;Node2 -->
<g id="edge1" class="edge">
<title>Node1&#45;&gt;Node2</title>
<path fill="none" stroke="midnightblue" d="M54.15,-193.02C48.86,-184.67 43.7,-174.82 41,-165 37.35,-151.71 37.35,-147.29 41,-134 44.67,-120.63 52.91,-107.21 59.83,-97.57"/>
<polygon fill="midnightblue" stroke="midnightblue" points="51.33,-195.1 59.83,-201.43 57.13,-191.18 51.33,-195.1"/>
</g>
<!-- Node4 -->
<g id="node4" class="node">
<title>Node4</title>
<g id="a_node4"><a xlink:href="jsoneat_8hh.html" target="_top" xlink:title=" ">
<polygon fill="none" stroke="black" points="50,-134.5 50,-164.5 192,-164.5 192,-134.5 50,-134.5"/>
<text text-anchor="start" x="58" y="-152.5" font-family="Helvetica,sans-Serif" font-size="10.00">components/jsmn/include</text>
<text text-anchor="middle" x="121" y="-141.5" font-family="Helvetica,sans-Serif" font-size="10.00">/jsoneat/jsoneat.hh</text>
</a>
</g>
</g>
<!-- Node1&#45;&gt;Node4 -->
<g id="edge3" class="edge">
<title>Node1&#45;&gt;Node4</title>
<path fill="none" stroke="midnightblue" d="M87.96,-193.45C95.31,-183.9 103.69,-173 110.17,-164.58"/>
<polygon fill="midnightblue" stroke="midnightblue" points="85.17,-191.34 81.85,-201.4 90.72,-195.6 85.17,-191.34"/>
</g>
<!-- Node3 -->
<g id="node3" class="node">
<title>Node3</title>
<g id="a_node3"><a xlink:href="test__crash_8cc.html" target="_top" xlink:title=" ">
<polygon fill="none" stroke="black" points="8.5,-0.5 8.5,-30.5 133.5,-30.5 133.5,-0.5 8.5,-0.5"/>
<text text-anchor="start" x="16.5" y="-18.5" font-family="Helvetica,sans-Serif" font-size="10.00">components/jsmn/test</text>
<text text-anchor="middle" x="71" y="-7.5" font-family="Helvetica,sans-Serif" font-size="10.00">/test_crash.cc</text>
</a>
</g>
</g>
<!-- Node2&#45;&gt;Node3 -->
<g id="edge2" class="edge">
<title>Node2&#45;&gt;Node3</title>
<path fill="none" stroke="midnightblue" d="M71,-57.11C71,-48.15 71,-38.32 71,-30.58"/>
<polygon fill="midnightblue" stroke="midnightblue" points="67.5,-57.4 71,-67.4 74.5,-57.4 67.5,-57.4"/>
</g>
<!-- Node4&#45;&gt;Node2 -->
<g id="edge4" class="edge">
<title>Node4&#45;&gt;Node2</title>
<path fill="none" stroke="midnightblue" d="M104.04,-126.45C96.69,-116.9 88.31,-106 81.83,-97.58"/>
<polygon fill="midnightblue" stroke="midnightblue" points="101.28,-128.6 110.15,-134.4 106.83,-124.34 101.28,-128.6"/>
</g>
</g>
</svg>
