<?xml version="1.0" encoding="UTF-8" standalone="no"?>
<!DOCTYPE svg PUBLIC "-//W3C//DTD SVG 1.1//EN"
 "http://www.w3.org/Graphics/SVG/1.1/DTD/svg11.dtd">
<!-- Generated by graphviz version 2.43.0 (0)
 -->
<!-- Title: components/jsmn/include/jsoneat/jsoneat.hh Pages: 1 -->
<svg width="505pt" height="151pt"
 viewBox="0.00 0.00 504.50 151.00" xmlns="http://www.w3.org/2000/svg" xmlns:xlink="http://www.w3.org/1999/xlink">
<g id="graph0" class="graph" transform="scale(1 1) rotate(0) translate(4 147)">
<title>components/jsmn/include/jsoneat/jsoneat.hh</title>
<!-- Node1 -->
<g id="node1" class="node">
<title>Node1</title>
<g id="a_node1"><a xlink:title=" ">
<polygon fill="#bfbfbf" stroke="black" points="200.5,-112.5 200.5,-142.5 342.5,-142.5 342.5,-112.5 200.5,-112.5"/>
<text text-anchor="start" x="208.5" y="-130.5" font-family="Helvetica,sans-Serif" font-size="10.00">components/jsmn/include</text>
<text text-anchor="middle" x="271.5" y="-119.5" font-family="Helvetica,sans-Serif" font-size="10.00">/jsoneat/jsoneat.hh</text>
</a>
</g>
</g>
<!-- Node2 -->
<g id="node2" class="node">
<title>Node2</title>
<g id="a_node2"><a xlink:href="jsmn_8h.html" target="_top" xlink:title=" ">
<polygon fill="none" stroke="black" points="9,-56.5 9,-75.5 86,-75.5 86,-56.5 9,-56.5"/>
<text text-anchor="middle" x="47.5" y="-63.5" font-family="Helvetica,sans-Serif" font-size="10.00">jsmn/jsmn.h</text>
</a>
</g>
</g>
<!-- Node1&#45;&gt;Node2 -->
<g id="edge1" class="edge">
<title>Node1&#45;&gt;Node2</title>
<path fill="none" stroke="midnightblue" d="M218.7,-112.47C179.21,-101.99 125.94,-87.84 89.37,-78.12"/>
<polygon fill="midnightblue" stroke="midnightblue" points="90.09,-74.69 79.52,-75.51 88.29,-81.46 90.09,-74.69"/>
</g>
<!-- Node4 -->
<g id="node4" class="node">
<title>Node4</title>
<g id="a_node4"><a xlink:title=" ">
<polygon fill="none" stroke="#bfbfbf" points="104,-56.5 104,-75.5 157,-75.5 157,-56.5 104,-56.5"/>
<text text-anchor="middle" x="130.5" y="-63.5" font-family="Helvetica,sans-Serif" font-size="10.00">iterator</text>
</a>
</g>
</g>
<!-- Node1&#45;&gt;Node4 -->
<g id="edge3" class="edge">
<title>Node1&#45;&gt;Node4</title>
<path fill="none" stroke="midnightblue" d="M238.08,-112.4C214.53,-102.46 183.26,-89.26 160.51,-79.66"/>
<polygon fill="midnightblue" stroke="midnightblue" points="161.59,-76.32 151.02,-75.66 158.87,-82.77 161.59,-76.32"/>
</g>
<!-- Node5 -->
<g id="node5" class="node">
<title>Node5</title>
<g id="a_node5"><a xlink:title=" ">
<polygon fill="none" stroke="#bfbfbf" points="175,-56.5 175,-75.5 228,-75.5 228,-56.5 175,-56.5"/>
<text text-anchor="middle" x="201.5" y="-63.5" font-family="Helvetica,sans-Serif" font-size="10.00">cstddef</text>
</a>
</g>
</g>
<!-- Node1&#45;&gt;Node5 -->
<g id="edge4" class="edge">
<title>Node1&#45;&gt;Node5</title>
<path fill="none" stroke="midnightblue" d="M254.91,-112.4C244.21,-103.31 230.31,-91.49 219.37,-82.19"/>
<polygon fill="midnightblue" stroke="midnightblue" points="221.57,-79.47 211.69,-75.66 217.04,-84.8 221.57,-79.47"/>
</g>
<!-- Node6 -->
<g id="node6" class="node">
<title>Node6</title>
<g id="a_node6"><a xlink:title=" ">
<polygon fill="none" stroke="#bfbfbf" points="246.5,-56.5 246.5,-75.5 296.5,-75.5 296.5,-56.5 246.5,-56.5"/>
<text text-anchor="middle" x="271.5" y="-63.5" font-family="Helvetica,sans-Serif" font-size="10.00">cstring</text>
</a>
</g>
</g>
<!-- Node1&#45;&gt;Node6 -->
<g id="edge5" class="edge">
<title>Node1&#45;&gt;Node6</title>
<path fill="none" stroke="midnightblue" d="M271.5,-112.4C271.5,-104.47 271.5,-94.46 271.5,-85.86"/>
<polygon fill="midnightblue" stroke="midnightblue" points="275,-85.66 271.5,-75.66 268,-85.66 275,-85.66"/>
</g>
<!-- Node7 -->
<g id="node7" class="node">
<title>Node7</title>
<g id="a_node7"><a xlink:title=" ">
<polygon fill="none" stroke="#bfbfbf" points="315,-56.5 315,-75.5 364,-75.5 364,-56.5 315,-56.5"/>
<text text-anchor="middle" x="339.5" y="-63.5" font-family="Helvetica,sans-Serif" font-size="10.00">cstdlib</text>
</a>
</g>
</g>
<!-- Node1&#45;&gt;Node7 -->
<g id="edge6" class="edge">
<title>Node1&#45;&gt;Node7</title>
<path fill="none" stroke="midnightblue" d="M287.62,-112.4C297.9,-103.4 311.25,-91.72 321.83,-82.47"/>
<polygon fill="midnightblue" stroke="midnightblue" points="324.38,-84.88 329.61,-75.66 319.77,-79.61 324.38,-84.88"/>
</g>
<!-- Node8 -->
<g id="node8" class="node">
<title>Node8</title>
<g id="a_node8"><a xlink:title=" ">
<polygon fill="none" stroke="#bfbfbf" points="382.5,-56.5 382.5,-75.5 434.5,-75.5 434.5,-56.5 382.5,-56.5"/>
<text text-anchor="middle" x="408.5" y="-63.5" font-family="Helvetica,sans-Serif" font-size="10.00">cassert</text>
</a>
</g>
</g>
<!-- Node1&#45;&gt;Node8 -->
<g id="edge7" class="edge">
<title>Node1&#45;&gt;Node8</title>
<path fill="none" stroke="midnightblue" d="M303.97,-112.4C326.85,-102.46 357.23,-89.26 379.34,-79.66"/>
<polygon fill="midnightblue" stroke="midnightblue" points="380.79,-82.85 388.57,-75.66 378,-76.43 380.79,-82.85"/>
</g>
<!-- Node9 -->
<g id="node9" class="node">
<title>Node9</title>
<g id="a_node9"><a xlink:title=" ">
<polygon fill="none" stroke="#bfbfbf" points="452.5,-56.5 452.5,-75.5 496.5,-75.5 496.5,-56.5 452.5,-56.5"/>
<text text-anchor="middle" x="474.5" y="-63.5" font-family="Helvetica,sans-Serif" font-size="10.00">string</text>
</a>
</g>
</g>
<!-- Node1&#45;&gt;Node9 -->
<g id="edge8" class="edge">
<title>Node1&#45;&gt;Node9</title>
<path fill="none" stroke="midnightblue" d="M319.35,-112.47C357.49,-101.3 409.8,-85.96 442.88,-76.27"/>
<polygon fill="midnightblue" stroke="midnightblue" points="443.88,-79.62 452.49,-73.45 441.91,-72.91 443.88,-79.62"/>
</g>
<!-- Node3 -->
<g id="node3" class="node">
<title>Node3</title>
<g id="a_node3"><a xlink:title=" ">
<polygon fill="none" stroke="#bfbfbf" points="0,-0.5 0,-19.5 95,-19.5 95,-0.5 0,-0.5"/>
<text text-anchor="middle" x="47.5" y="-7.5" font-family="Helvetica,sans-Serif" font-size="10.00">../../jsmn/jsmn.h</text>
</a>
</g>
</g>
<!-- Node2&#45;&gt;Node3 -->
<g id="edge2" class="edge">
<title>Node2&#45;&gt;Node3</title>
<path fill="none" stroke="midnightblue" d="M47.5,-56.08C47.5,-49.01 47.5,-38.86 47.5,-29.99"/>
<polygon fill="midnightblue" stroke="midnightblue" points="51,-29.75 47.5,-19.75 44,-29.75 51,-29.75"/>
</g>
</g>
</svg>
